<svg width="18" height="18" viewBox="0 0 18 18" fill="none" xmlns="http://www.w3.org/2000/svg">
<path fill-rule="evenodd" clip-rule="evenodd" d="M0.980469 1.94357C0.980469 1.57664 1.12791 1.22474 1.39036 0.965281C1.65281 0.705822 2.00877 0.56006 2.37993 0.56006H16.3304C16.5144 0.559763 16.6966 0.595335 16.8666 0.664739C17.0366 0.734143 17.1911 0.836017 17.3212 0.964527C17.4513 1.09304 17.5546 1.24566 17.6249 1.41366C17.6953 1.58166 17.7315 1.76173 17.7314 1.94357V15.735C17.7316 15.9169 17.6955 16.097 17.6253 16.2651C17.555 16.4331 17.4518 16.5859 17.3218 16.7145C17.1917 16.8432 17.0373 16.9452 16.8673 17.0148C16.6973 17.0843 16.5152 17.1201 16.3312 17.12H2.37993C2.19609 17.12 2.01405 17.0842 1.84421 17.0146C1.67437 16.945 1.52006 16.8431 1.39009 16.7145C1.26013 16.586 1.15706 16.4334 1.08678 16.2654C1.01649 16.0975 0.980369 15.9175 0.980469 15.7357V1.94357ZM7.6108 6.87391H9.87903V7.99999C10.2064 7.35265 11.044 6.77004 12.3026 6.77004C14.7155 6.77004 15.2873 8.05946 15.2873 10.4253V14.8076H12.8455V10.9642C12.8455 9.61684 12.5181 8.85659 11.6866 8.85659C10.5331 8.85659 10.0534 9.67631 10.0534 10.9642V14.8076H7.6108V6.87391ZM3.42306 14.7045H5.86565V6.77004H3.42306V14.7038V14.7045ZM6.21514 4.18217C6.21975 4.38892 6.18253 4.5945 6.10568 4.78685C6.02883 4.97919 5.91389 5.15442 5.76761 5.30225C5.62133 5.45008 5.44665 5.56754 5.25383 5.64773C5.06101 5.72792 4.85393 5.76923 4.64474 5.76923C4.43555 5.76923 4.22847 5.72792 4.03565 5.64773C3.84283 5.56754 3.66815 5.45008 3.52187 5.30225C3.37559 5.15442 3.26065 4.97919 3.1838 4.78685C3.10695 4.5945 3.06973 4.38892 3.07434 4.18217C3.08338 3.77634 3.2528 3.39015 3.54632 3.10629C3.83984 2.82244 4.23413 2.66349 4.64474 2.66349C5.05535 2.66349 5.44963 2.82244 5.74316 3.10629C6.03668 3.39015 6.2061 3.77634 6.21514 4.18217Z" fill="#122E55"/>
</svg>
