<svg width="18" height="18" viewBox="0 0 18 18" fill="none" xmlns="http://www.w3.org/2000/svg">
<path d="M17.064 0.560059H1.03668C0.651244 0.560059 0.339844 0.856068 0.339844 1.22246V16.4576C0.339844 16.824 0.651244 17.12 1.03668 17.12H17.064C17.4494 17.12 17.7608 16.824 17.7608 16.4576V1.22246C17.7608 0.856068 17.4494 0.560059 17.064 0.560059ZM13.7388 6.55683C13.7453 6.65412 13.7453 6.75555 13.7453 6.85491C13.7453 9.89366 11.3107 13.394 6.86183 13.394C5.48992 13.394 4.21819 13.0152 3.1468 12.3632C3.34279 12.3839 3.53006 12.3921 3.7304 12.3921C4.86277 12.3921 5.90367 12.0278 6.73335 11.411C5.67067 11.3903 4.77784 10.7279 4.47297 9.81707C4.84535 9.86882 5.1807 9.86882 5.56396 9.77567C5.01678 9.66999 4.52496 9.38751 4.17206 8.9762C3.81916 8.56489 3.62694 8.05014 3.62806 7.51938V7.49039C3.94817 7.6622 4.32489 7.76777 4.71904 7.78226C4.3877 7.57236 4.11597 7.28797 3.92794 6.95433C3.73991 6.62069 3.64139 6.24809 3.64112 5.86959C3.64112 5.4411 3.75871 5.04987 3.96994 4.71039C4.57729 5.4211 5.33516 6.00236 6.19431 6.41641C7.05345 6.83046 7.99464 7.06802 8.9567 7.11366C8.61481 5.55081 9.84299 4.28605 11.3194 4.28605C12.0163 4.28605 12.6434 4.56343 13.0855 5.01054C13.6321 4.91325 14.1547 4.71867 14.6207 4.45785C14.44 4.98984 14.061 5.43903 13.558 5.72262C14.0458 5.67294 14.5162 5.5446 14.9517 5.36451C14.6229 5.82405 14.2113 6.23184 13.7388 6.55683Z" fill="#122E55"/>
</svg>
