<svg width="18" height="18" viewBox="0 0 18 18" fill="none" xmlns="http://www.w3.org/2000/svg">
<path d="M14.6879 2.96957C13.925 2.20279 13.0162 1.59483 12.0147 1.18115C11.0131 0.767466 9.93879 0.556349 8.85438 0.560108C4.31074 0.560108 0.607589 4.24468 0.607589 8.76554C0.607589 10.2145 0.990387 11.6221 1.70605 12.8641L0.541016 17.12L4.9099 15.9774C6.11655 16.6315 7.47298 16.9792 8.85438 16.9792C13.398 16.9792 17.1012 13.2947 17.1012 8.77382C17.1012 6.57963 16.244 4.51792 14.6879 2.96957ZM8.85438 15.5882C7.62277 15.5882 6.41613 15.257 5.35927 14.636L5.10962 14.487L2.51326 15.1659L3.20396 12.6488L3.03752 12.3922C2.35327 11.305 1.98994 10.0483 1.98899 8.76554C1.98899 5.00644 5.06801 1.94286 8.84606 1.94286C10.6768 1.94286 12.3994 2.65493 13.6893 3.94661C14.328 4.57916 14.8341 5.33156 15.1784 6.16019C15.5226 6.98881 15.6982 7.87719 15.6948 8.77382C15.7115 12.5329 12.6324 15.5882 8.85438 15.5882ZM12.6158 10.4878C12.4077 10.3884 11.3925 9.89161 11.2094 9.81709C11.018 9.75085 10.8849 9.71773 10.7434 9.91645C10.6019 10.1234 10.2108 10.5871 10.0943 10.7196C9.97781 10.8604 9.85298 10.8769 9.64494 10.7693C9.4369 10.6699 8.77116 10.4464 7.98893 9.75085C7.37312 9.20437 6.96536 8.5337 6.84053 8.3267C6.72403 8.1197 6.82389 8.01206 6.93207 7.90442C7.02361 7.81334 7.14011 7.6643 7.23997 7.54838C7.33983 7.43246 7.38144 7.34138 7.44802 7.20891C7.51459 7.06815 7.4813 6.95223 7.43137 6.85287C7.38144 6.75351 6.96536 5.74336 6.79892 5.32936C6.63249 4.93192 6.45774 4.9816 6.33291 4.97332H5.93347C5.792 4.97332 5.57564 5.023 5.38424 5.23C5.20116 5.437 4.66857 5.93379 4.66857 6.94395C4.66857 7.9541 5.4092 8.93114 5.50906 9.06361C5.60892 9.20437 6.96536 11.2744 9.02914 12.1603C9.52012 12.3756 9.90291 12.4998 10.2025 12.5909C10.6935 12.7482 11.1428 12.7233 11.5007 12.6737C11.9001 12.6157 12.724 12.1769 12.8904 11.6966C13.0652 11.2164 13.0652 10.8107 13.0069 10.7196C12.9487 10.6285 12.8238 10.5871 12.6158 10.4878Z" fill="#122E55"/>
</svg>
